<svg width="59" height="59" viewBox="0 0 59 59" fill="none" xmlns="http://www.w3.org/2000/svg">
<path d="M5.95819 10.5217C5.95776 10.5213 5.95807 10.5205 5.95868 10.5205H53.0443C53.8579 10.5205 54.5193 11.182 54.5193 11.9955V47.0061C54.5193 47.8197 53.8579 48.4811 53.0443 48.4811H5.95937C5.14582 48.4811 4.48438 47.8197 4.48438 47.0061V11.9979C4.48438 11.1849 5.14491 10.5238 5.9577 10.5229C5.95831 10.5229 5.95863 10.5221 5.95819 10.5217V10.5217ZM28.8266 40.8192C28.8266 39.9594 28.1296 39.2624 27.2698 39.2624H11.7176C10.8578 39.2624 10.1608 39.9594 10.1608 40.8192V40.8192C10.1608 41.679 10.8578 42.376 11.7176 42.376H27.2698C28.1296 42.376 28.8266 41.679 28.8266 40.8192V40.8192ZM23.9084 33.1285C23.9084 32.2687 23.2114 31.5717 22.3516 31.5717H11.7176C10.8578 31.5717 10.1608 32.2687 10.1608 33.1285V33.1285C10.1608 33.9883 10.8578 34.6853 11.7176 34.6853H22.3516C23.2114 34.6853 23.9084 33.9883 23.9084 33.1285V33.1285ZM32.136 25.4379C32.136 24.5781 31.439 23.8811 30.5792 23.8811H11.7176C10.8578 23.8811 10.1608 24.5781 10.1608 25.4379V25.4379C10.1608 26.2977 10.8578 26.9947 11.7176 26.9947H30.5792C31.439 26.9947 32.136 26.2977 32.136 25.4379V25.4379ZM43.4657 17.7472C43.4657 16.8874 42.7687 16.1904 41.9089 16.1904H11.6781C10.8183 16.1904 10.1213 16.8874 10.1213 17.7472V17.7472C10.1213 18.607 10.8183 19.304 11.6781 19.304H41.9089C42.7687 19.304 43.4657 18.607 43.4657 17.7472V17.7472ZM42.7195 25.9687C43.9658 26.9458 45.1875 27.7483 46.5907 28.4825C46.8159 28.6004 46.9466 28.7606 47.0157 29.0037C47.449 30.5278 47.971 31.8942 48.6698 33.3162C48.7801 33.5405 48.7914 33.7442 48.7068 33.9774C48.1662 35.4672 47.7764 36.8766 47.5113 38.4392C47.4685 38.6913 47.3553 38.8657 47.1428 39.0071C45.8247 39.8845 44.6903 40.8065 43.5544 41.9097C43.3739 42.085 43.182 42.1587 42.9307 42.1492C41.3487 42.0895 39.8884 42.1597 38.3222 42.3907C38.0711 42.4277 37.8716 42.3751 37.6735 42.2197C36.4272 41.2426 35.2055 40.44 33.8023 39.7059C33.5771 39.588 33.4464 39.4277 33.3773 39.1847C32.944 37.6606 32.422 36.2942 31.7232 34.8721C31.6129 34.6479 31.6016 34.4442 31.6862 34.211C32.2268 32.7212 32.6166 31.3118 32.8817 29.7492C32.9244 29.4976 33.0373 29.3234 33.2489 29.1821C34.5667 28.3026 35.7227 27.3934 36.8576 26.2881C37.0405 26.11 37.2293 26.0327 37.4666 26.0353C39.049 26.0531 40.5044 26.0301 42.0698 25.7979C42.3214 25.7606 42.5211 25.8131 42.7195 25.9687ZM40.1977 29.7349C42.6014 29.7349 44.5581 31.6915 44.5581 34.0953C44.5581 36.5014 42.6037 38.4558 40.1977 38.4558C37.7939 38.4558 35.8372 36.4991 35.8372 34.0953C35.8372 31.6938 37.7962 29.7349 40.1977 29.7349ZM40.1977 32.0949C39.0868 32.0949 38.1972 32.9845 38.1972 34.0953C38.1972 35.2039 39.0891 36.0958 40.1977 36.0958C41.3016 36.0958 42.1981 35.1993 42.1981 34.0953C42.1981 32.9868 41.3062 32.0949 40.1977 32.0949ZM41.6934 28.5203C41.6934 28.5203 41.6934 28.5203 41.6934 28.5203C40.2952 29.257 40.1311 29.46 39.4156 29.2203C38.6756 28.9725 37.9038 29.2696 37.5205 29.9494C37.4113 30.1432 37.3114 30.2761 37.1844 30.3774C36.3351 31.055 35.8512 31.8016 35.5723 32.8516V32.8516C35.2928 33.9037 35.3358 34.7893 35.7282 35.8047V35.8047C36.12 36.8182 36.676 37.5185 37.5885 38.1085V38.1085C38.5016 38.6989 39.3589 38.8937 40.4461 38.881C40.604 38.8792 40.7732 38.914 40.9929 38.9856C41.7263 39.2244 42.5304 38.9472 42.8711 38.2553V38.2553C43.0117 37.9326 43.2975 37.6768 43.664 37.5846V37.5846C44.4399 37.3881 44.8838 36.635 44.8029 35.8386C44.7823 35.6358 44.7868 35.4797 44.8265 35.3327C45.1101 34.2837 45.0998 33.4143 44.697 32.4051V32.4051C44.295 31.3979 43.7248 30.6673 42.812 30.0817C42.487 29.8732 42.2913 29.4686 41.6934 28.5203C41.6934 28.5203 41.6934 28.5203 41.6934 28.5203V28.5203ZM28.8756 45.5272C28.8778 45.5282 28.8803 45.5277 28.8819 45.526L32.7349 41.5041C33.2651 40.9506 34.0858 40.766 34.8439 40.8793V40.8793C35.3971 40.9619 35.8818 41.2758 36.1934 41.7402C36.9879 42.9244 37.5074 43.3778 38.3273 43.2711C39.9016 43.0663 41.4321 42.9782 43.0191 43.0198C43.4386 43.0308 43.7645 42.9093 44.0677 42.6285C45.238 41.5446 46.4256 40.5657 47.7398 39.6618C48.0871 39.423 48.2768 39.1293 48.3527 38.713C48.6383 37.1451 49.0471 35.6618 49.5637 34.1541C49.8254 33.3901 49.5017 32.7977 48.5636 31.8237C48.1412 31.3853 47.9277 30.667 47.9555 30.0588V30.0588C48.0289 28.4507 47.6422 25.9402 48.7558 24.7777L50.5825 22.8708C51.214 22.2115 51.5665 21.3339 51.5665 20.4209V18.8758C51.5665 15.8894 49.1456 13.4684 46.1592 13.4684H12.8365C9.85016 13.4684 7.42923 15.8894 7.42923 18.8758V40.1194C7.42923 43.1058 9.85016 45.5267 12.8365 45.5267H28.8734C28.8741 45.5267 28.8749 45.5269 28.8756 45.5272V45.5272Z" fill="#F78E1E"/>
<path d="M5.95819 10.5217C5.95776 10.5213 5.95807 10.5205 5.95868 10.5205H53.0443C53.8579 10.5205 54.5193 11.182 54.5193 11.9955V47.0061C54.5193 47.8197 53.8579 48.4811 53.0443 48.4811H5.95937C5.14582 48.4811 4.48438 47.8197 4.48438 47.0061V11.9979C4.48438 11.1849 5.14491 10.5238 5.9577 10.5229C5.95831 10.5229 5.95863 10.5221 5.95819 10.5217V10.5217ZM28.8266 40.8192C28.8266 39.9594 28.1296 39.2624 27.2698 39.2624H11.7176C10.8578 39.2624 10.1608 39.9594 10.1608 40.8192V40.8192C10.1608 41.679 10.8578 42.376 11.7176 42.376H27.2698C28.1296 42.376 28.8266 41.679 28.8266 40.8192V40.8192ZM23.9084 33.1285C23.9084 32.2687 23.2114 31.5717 22.3516 31.5717H11.7176C10.8578 31.5717 10.1608 32.2687 10.1608 33.1285V33.1285C10.1608 33.9883 10.8578 34.6853 11.7176 34.6853H22.3516C23.2114 34.6853 23.9084 33.9883 23.9084 33.1285V33.1285ZM32.136 25.4379C32.136 24.5781 31.439 23.8811 30.5792 23.8811H11.7176C10.8578 23.8811 10.1608 24.5781 10.1608 25.4379V25.4379C10.1608 26.2977 10.8578 26.9947 11.7176 26.9947H30.5792C31.439 26.9947 32.136 26.2977 32.136 25.4379V25.4379ZM43.4657 17.7472C43.4657 16.8874 42.7687 16.1904 41.9089 16.1904H11.6781C10.8183 16.1904 10.1213 16.8874 10.1213 17.7472V17.7472C10.1213 18.607 10.8183 19.304 11.6781 19.304H41.9089C42.7687 19.304 43.4657 18.607 43.4657 17.7472V17.7472ZM42.7195 25.9687C43.9658 26.9458 45.1875 27.7483 46.5907 28.4825C46.8159 28.6004 46.9466 28.7606 47.0157 29.0037C47.449 30.5278 47.971 31.8942 48.6698 33.3162C48.7801 33.5405 48.7914 33.7442 48.7068 33.9774C48.1662 35.4672 47.7764 36.8766 47.5113 38.4392C47.4685 38.6913 47.3553 38.8657 47.1428 39.0071C45.8247 39.8845 44.6903 40.8065 43.5544 41.9097C43.3739 42.085 43.182 42.1587 42.9307 42.1492C41.3487 42.0895 39.8884 42.1597 38.3222 42.3907C38.0711 42.4277 37.8716 42.3751 37.6735 42.2197C36.4272 41.2426 35.2055 40.44 33.8023 39.7059C33.5771 39.588 33.4464 39.4277 33.3773 39.1847C32.944 37.6606 32.422 36.2942 31.7232 34.8721C31.6129 34.6479 31.6016 34.4442 31.6862 34.211C32.2268 32.7212 32.6166 31.3118 32.8817 29.7492C32.9244 29.4976 33.0373 29.3234 33.2489 29.1821C34.5667 28.3026 35.7227 27.3934 36.8576 26.2881C37.0405 26.11 37.2293 26.0327 37.4666 26.0353C39.049 26.0531 40.5044 26.0301 42.0698 25.7979C42.3214 25.7606 42.5211 25.8131 42.7195 25.9687ZM40.1977 29.7349C42.6014 29.7349 44.5581 31.6915 44.5581 34.0953C44.5581 36.5014 42.6037 38.4558 40.1977 38.4558C37.7939 38.4558 35.8372 36.4991 35.8372 34.0953C35.8372 31.6938 37.7962 29.7349 40.1977 29.7349ZM40.1977 32.0949C39.0868 32.0949 38.1972 32.9845 38.1972 34.0953C38.1972 35.2039 39.0891 36.0958 40.1977 36.0958C41.3016 36.0958 42.1981 35.1993 42.1981 34.0953C42.1981 32.9868 41.3062 32.0949 40.1977 32.0949ZM41.6934 28.5203C41.6934 28.5203 41.6934 28.5203 41.6934 28.5203C40.2952 29.257 40.1311 29.46 39.4156 29.2203C38.6756 28.9725 37.9038 29.2696 37.5205 29.9494C37.4113 30.1432 37.3114 30.2761 37.1844 30.3774C36.3351 31.055 35.8512 31.8016 35.5723 32.8516V32.8516C35.2928 33.9037 35.3358 34.7893 35.7282 35.8047V35.8047C36.12 36.8182 36.676 37.5185 37.5885 38.1085V38.1085C38.5016 38.6989 39.3589 38.8937 40.4461 38.881C40.604 38.8792 40.7732 38.914 40.9929 38.9856C41.7263 39.2244 42.5304 38.9472 42.8711 38.2553V38.2553C43.0117 37.9326 43.2975 37.6768 43.664 37.5846V37.5846C44.4399 37.3881 44.8838 36.635 44.8029 35.8386C44.7823 35.6358 44.7868 35.4797 44.8265 35.3327C45.1101 34.2837 45.0998 33.4143 44.697 32.4051V32.4051C44.295 31.3979 43.7248 30.6673 42.812 30.0817C42.487 29.8732 42.2913 29.4686 41.6934 28.5203C41.6934 28.5203 41.6934 28.5203 41.6934 28.5203V28.5203ZM28.8756 45.5272C28.8778 45.5282 28.8803 45.5277 28.8819 45.526L32.7349 41.5041C33.2651 40.9506 34.0858 40.766 34.8439 40.8793V40.8793C35.3971 40.9619 35.8818 41.2758 36.1934 41.7402C36.9879 42.9244 37.5074 43.3778 38.3273 43.2711C39.9016 43.0663 41.4321 42.9782 43.0191 43.0198C43.4386 43.0308 43.7645 42.9093 44.0677 42.6285C45.238 41.5446 46.4256 40.5657 47.7398 39.6618C48.0871 39.423 48.2768 39.1293 48.3527 38.713C48.6383 37.1451 49.0471 35.6618 49.5637 34.1541C49.8254 33.3901 49.5017 32.7977 48.5636 31.8237C48.1412 31.3853 47.9277 30.667 47.9555 30.0588V30.0588C48.0289 28.4507 47.6422 25.9402 48.7558 24.7777L50.5825 22.8708C51.214 22.2115 51.5665 21.3339 51.5665 20.4209V18.8758C51.5665 15.8894 49.1456 13.4684 46.1592 13.4684H12.8365C9.85016 13.4684 7.42923 15.8894 7.42923 18.8758V40.1194C7.42923 43.1058 9.85016 45.5267 12.8365 45.5267H28.8734C28.8741 45.5267 28.8749 45.5269 28.8756 45.5272V45.5272Z" fill="url(#paint0_linear)"/>
<defs>
<linearGradient id="paint0_linear" x1="49.9766" y1="29.2283" x2="45.4914" y2="29.2283" gradientUnits="userSpaceOnUse">
<stop offset="0.046875" stop-color="#E38119"/>
<stop offset="1" stop-color="#F78E1E"/>
</linearGradient>
</defs>
</svg>
