<svg width="60" height="60" viewBox="0 0 60 60" fill="none" xmlns="http://www.w3.org/2000/svg">
<path fill-rule="evenodd" clip-rule="evenodd" d="M30.0006 3C30.0007 3 30.0008 3.00014 30.0008 3.0003C30.0008 3.00045 30.0009 3.0006 30.0011 3.0006C44.8203 3.00076 56.8812 15.0613 57.0007 29.8224C57.0619 37.0224 54.2398 43.8002 49.2007 48.9612C44.1619 54.1195 37.3813 56.9391 30.1813 57H30.0009C15.1815 57 3.12041 44.9394 3.00088 30.1806C2.88148 15.3001 14.9395 3.1197 30.0006 3ZM38.1285 20.9577C38.0434 20.8105 37.9546 20.6643 37.8621 20.5194C36.1209 17.7608 33.4817 16.3804 29.9427 16.3804C26.401 16.3804 23.8205 17.7584 22.0815 20.5194C22.0329 20.5967 21.9854 20.6745 21.939 20.7528C20.249 23.6019 22.9674 26.7 26.28 26.7H33.8936C37.126 26.7 39.7469 23.7558 38.1285 20.9577ZM30.4198 31.4603C31.3526 31.2829 30.9089 30.2388 29.9594 30.2388C29.0288 30.2388 28.578 31.2504 29.4879 31.4458C29.6532 31.4813 29.8249 31.4998 30.0011 31.4998C30.144 31.4998 30.2839 31.4861 30.4198 31.4603ZM46.6203 46.439L46.6205 46.4391L46.6206 46.4392C51.0008 41.9998 53.4007 36.1193 53.3398 29.8806C53.2845 18.8836 45.5539 9.64794 35.1762 7.24978C33.349 6.82754 31.7398 8.32368 31.7398 10.199C31.7398 11.8387 32.9974 13.1667 34.5488 13.6976C37.1149 14.5758 39.2397 16.2662 40.801 18.7196C42.7205 21.7198 43.3205 25.2002 43.501 27.0002C43.6205 27.8417 43.3205 28.6807 42.7815 29.2807C42.1815 29.8807 41.401 30.2417 40.5619 30.2417H40.1926C38.1195 30.2417 36.3453 31.6194 34.6421 32.9421C34.2284 33.2633 33.8189 33.5813 33.4104 33.8755C32.4446 34.5709 31.265 34.9807 30.001 34.9807C28.7375 34.9807 27.5587 34.572 26.5935 33.8782C26.1822 33.5825 25.7699 33.2625 25.3535 32.9394C23.6506 31.6178 21.8772 30.2417 19.8056 30.2417H19.44C18.601 30.2417 17.7596 29.8807 17.2205 29.2807C16.6815 28.6807 16.4401 27.8393 16.501 27.0002C16.6815 25.2002 17.2815 21.7196 19.201 18.7196C20.723 16.2598 22.8437 14.5669 25.4403 13.6907C26.9992 13.1646 28.2622 11.8333 28.2622 10.1879C28.2622 8.31534 26.6605 6.81767 24.8345 7.23277C14.3919 9.6066 6.60713 19.0114 6.66219 30.1806C6.72039 42.9612 17.2204 53.4 30.001 53.4H30.1205C36.3592 53.3388 42.2398 50.8779 46.6203 46.439ZM19.5617 32.2803C20.5203 32.2803 21.3008 33.0584 21.3008 34.0193C21.3008 34.9802 20.5203 35.7607 19.5617 35.7583H16.5008C15.5422 35.7583 14.7617 34.9803 14.7617 34.0193C14.7617 33.0608 15.5398 32.2803 16.5008 32.2803H19.5617ZM28.5625 41.5193C28.5625 40.5608 29.3406 39.7803 30.3015 39.7803C31.2624 39.7803 32.0406 40.5607 32.0406 41.5193V44.8803C32.0406 45.8388 31.2625 46.6193 30.3015 46.6193C29.343 46.6193 28.5625 45.8412 28.5625 44.8803V41.5193ZM44.1625 32.2803H40.8015C39.8406 32.2803 39.0625 33.0608 39.0625 34.0193C39.0625 34.9803 39.843 35.7584 40.8015 35.7584H44.1625C45.1235 35.7584 45.9015 34.9779 45.9015 34.0193C45.9015 33.0607 45.1211 32.2803 44.1625 32.2803ZM20.6422 40.2588L22.9812 37.9197H22.9813C23.7008 37.2611 24.7813 37.2611 25.5032 37.9197C26.1641 38.5807 26.1641 39.7197 25.5032 40.3807L23.1641 42.7197C22.8032 43.0197 22.3227 43.2002 21.9032 43.2002C21.4227 43.2002 21.0031 43.0807 20.6422 42.7197C19.9812 42.0588 19.9812 40.9197 20.6422 40.2588ZM37.8629 37.9195C37.202 37.2586 36.0629 37.2586 35.402 37.9195C34.741 38.5805 34.741 39.7195 35.402 40.3805L37.741 42.7195C38.1019 43.0805 38.5215 43.2 39.002 43.2C39.4824 43.2 39.902 43.0195 40.2629 42.7195C40.9239 42.0586 40.9239 40.9195 40.2629 40.2586L37.8629 37.9195Z" fill="#F78E1E"/>
<path fill-rule="evenodd" clip-rule="evenodd" d="M30.0006 3C30.0007 3 30.0008 3.00014 30.0008 3.0003C30.0008 3.00045 30.0009 3.0006 30.0011 3.0006C44.8203 3.00076 56.8812 15.0613 57.0007 29.8224C57.0619 37.0224 54.2398 43.8002 49.2007 48.9612C44.1619 54.1195 37.3813 56.9391 30.1813 57H30.0009C15.1815 57 3.12041 44.9394 3.00088 30.1806C2.88148 15.3001 14.9395 3.1197 30.0006 3ZM38.1285 20.9577C38.0434 20.8105 37.9546 20.6643 37.8621 20.5194C36.1209 17.7608 33.4817 16.3804 29.9427 16.3804C26.401 16.3804 23.8205 17.7584 22.0815 20.5194C22.0329 20.5967 21.9854 20.6745 21.939 20.7528C20.249 23.6019 22.9674 26.7 26.28 26.7H33.8936C37.126 26.7 39.7469 23.7558 38.1285 20.9577ZM30.4198 31.4603C31.3526 31.2829 30.9089 30.2388 29.9594 30.2388C29.0288 30.2388 28.578 31.2504 29.4879 31.4458C29.6532 31.4813 29.8249 31.4998 30.0011 31.4998C30.144 31.4998 30.2839 31.4861 30.4198 31.4603ZM46.6203 46.439L46.6205 46.4391L46.6206 46.4392C51.0008 41.9998 53.4007 36.1193 53.3398 29.8806C53.2845 18.8836 45.5539 9.64794 35.1762 7.24978C33.349 6.82754 31.7398 8.32368 31.7398 10.199C31.7398 11.8387 32.9974 13.1667 34.5488 13.6976C37.1149 14.5758 39.2397 16.2662 40.801 18.7196C42.7205 21.7198 43.3205 25.2002 43.501 27.0002C43.6205 27.8417 43.3205 28.6807 42.7815 29.2807C42.1815 29.8807 41.401 30.2417 40.5619 30.2417H40.1926C38.1195 30.2417 36.3453 31.6194 34.6421 32.9421C34.2284 33.2633 33.8189 33.5813 33.4104 33.8755C32.4446 34.5709 31.265 34.9807 30.001 34.9807C28.7375 34.9807 27.5587 34.572 26.5935 33.8782C26.1822 33.5825 25.7699 33.2625 25.3535 32.9394C23.6506 31.6178 21.8772 30.2417 19.8056 30.2417H19.44C18.601 30.2417 17.7596 29.8807 17.2205 29.2807C16.6815 28.6807 16.4401 27.8393 16.501 27.0002C16.6815 25.2002 17.2815 21.7196 19.201 18.7196C20.723 16.2598 22.8437 14.5669 25.4403 13.6907C26.9992 13.1646 28.2622 11.8333 28.2622 10.1879C28.2622 8.31534 26.6605 6.81767 24.8345 7.23277C14.3919 9.6066 6.60713 19.0114 6.66219 30.1806C6.72039 42.9612 17.2204 53.4 30.001 53.4H30.1205C36.3592 53.3388 42.2398 50.8779 46.6203 46.439ZM19.5617 32.2803C20.5203 32.2803 21.3008 33.0584 21.3008 34.0193C21.3008 34.9802 20.5203 35.7607 19.5617 35.7583H16.5008C15.5422 35.7583 14.7617 34.9803 14.7617 34.0193C14.7617 33.0608 15.5398 32.2803 16.5008 32.2803H19.5617ZM28.5625 41.5193C28.5625 40.5608 29.3406 39.7803 30.3015 39.7803C31.2624 39.7803 32.0406 40.5607 32.0406 41.5193V44.8803C32.0406 45.8388 31.2625 46.6193 30.3015 46.6193C29.343 46.6193 28.5625 45.8412 28.5625 44.8803V41.5193ZM44.1625 32.2803H40.8015C39.8406 32.2803 39.0625 33.0608 39.0625 34.0193C39.0625 34.9803 39.843 35.7584 40.8015 35.7584H44.1625C45.1235 35.7584 45.9015 34.9779 45.9015 34.0193C45.9015 33.0607 45.1211 32.2803 44.1625 32.2803ZM20.6422 40.2588L22.9812 37.9197H22.9813C23.7008 37.2611 24.7813 37.2611 25.5032 37.9197C26.1641 38.5807 26.1641 39.7197 25.5032 40.3807L23.1641 42.7197C22.8032 43.0197 22.3227 43.2002 21.9032 43.2002C21.4227 43.2002 21.0031 43.0807 20.6422 42.7197C19.9812 42.0588 19.9812 40.9197 20.6422 40.2588ZM37.8629 37.9195C37.202 37.2586 36.0629 37.2586 35.402 37.9195C34.741 38.5805 34.741 39.7195 35.402 40.3805L37.741 42.7195C38.1019 43.0805 38.5215 43.2 39.002 43.2C39.4824 43.2 39.902 43.0195 40.2629 42.7195C40.9239 42.0586 40.9239 40.9195 40.2629 40.2586L37.8629 37.9195Z" fill="url(#paint0_linear)"/>
<defs>
<linearGradient id="paint0_linear" x1="52.0988" y1="29.6123" x2="47.2581" y2="29.6123" gradientUnits="userSpaceOnUse">
<stop offset="0.046875" stop-color="#E38119"/>
<stop offset="1" stop-color="#F78E1E"/>
</linearGradient>
</defs>
</svg>
