<svg width="59" height="59" viewBox="0 0 59 59" fill="none" xmlns="http://www.w3.org/2000/svg">
<g clip-path="url(#clip0)">
<path fill-rule="evenodd" clip-rule="evenodd" d="M34.6028 3.61605C37.2832 1.29525 40.7059 0.0138548 44.2504 4.27704e-07C48.1614 0.00469815 51.9109 1.56034 54.6742 4.32588C57.4398 7.08944 58.9954 10.8389 59.0001 14.75C58.9955 18.6611 57.4398 22.4108 54.6742 25.1741C51.9106 27.9397 48.1611 29.4954 44.2501 29.5C43.7177 29.5 43.2659 29.9158 43.2659 30.4481V55.0662C43.2636 57.2372 41.5051 58.998 39.3341 59.0003H3.93412C1.7631 58.998 0.00230466 57.2372 0 55.0662V19.6662C0.002301 17.4952 1.7631 15.7367 3.93412 15.7344H28.5522C29.0845 15.7344 29.5003 15.2826 29.5003 14.7502C29.5003 14.0473 29.551 13.3444 29.6478 12.6484C30.1663 9.1404 31.9248 5.93688 34.6028 3.61605ZM44.2504 4.27704e-07C44.2505 2.85002e-07 44.2505 1.42434e-07 44.2505 0H44.2501C44.2502 1.42225e-07 44.2503 2.82516e-07 44.2504 4.27704e-07ZM44.2505 6.88406C43.7066 6.88406 43.2664 7.32428 43.2664 7.86588V11.8C43.2664 12.3439 43.7066 12.7841 44.2505 12.7841C44.7945 12.7841 45.2346 12.3439 45.2346 11.8V7.86588C45.2346 7.32425 44.7945 6.88406 44.2505 6.88406ZM21.6346 20.65H9.83465C9.29072 20.65 8.85053 21.0902 8.85053 21.6341C8.85053 22.1757 9.29074 22.6159 9.83465 22.6159H21.6346C22.1763 22.6159 22.6165 22.1757 22.6165 21.6341C22.6165 21.0902 22.1763 20.65 21.6346 20.65ZM4.91641 22.6159H5.90053C6.44446 22.6159 6.88465 22.1757 6.88465 21.6341C6.88465 21.0901 6.44444 20.6499 5.90053 20.6499H4.91641C4.37478 20.6499 3.93459 21.0902 3.93459 21.6341C3.93459 22.1757 4.37481 22.6159 4.91641 22.6159ZM17.4124 47.896C17.5968 47.7116 17.7005 47.4604 17.7005 47.2V43.2659C17.7005 43.0054 17.5968 42.7565 17.4124 42.5722C17.2281 42.3878 16.9792 42.2841 16.7164 42.2841H8.85054C8.59011 42.2841 8.33889 42.3878 8.15452 42.5722C7.97014 42.7565 7.86643 43.0055 7.86643 43.2659V47.2C7.86643 47.4604 7.97014 47.7117 8.15452 47.896C8.3389 48.0804 8.59011 48.1841 8.85054 48.1841H16.7164C16.9792 48.1841 17.2281 48.0804 17.4124 47.896ZM24.2966 39.046C24.4809 38.8616 24.5847 38.6104 24.5847 38.35V26.55C24.5847 26.2896 24.4809 26.0384 24.2966 25.854C24.1122 25.6696 23.861 25.5659 23.6005 25.5659H19.6664C19.406 25.5659 19.1571 25.6696 18.9727 25.854C18.7883 26.0384 18.6846 26.2896 18.6846 26.55V38.35C18.6846 38.6104 18.7883 38.8617 18.9727 39.046C19.1571 39.2304 19.406 39.3341 19.6664 39.3341H23.6005C23.861 39.3341 24.1122 39.2304 24.2966 39.046ZM35.1124 47.896C35.2968 47.7116 35.4005 47.4604 35.4005 47.2V43.2659C35.4005 43.0054 35.2968 42.7565 35.1124 42.5722C34.9281 42.3878 34.6792 42.2841 34.4164 42.2841H26.5505C26.2901 42.2841 26.0389 42.3878 25.8545 42.5722C25.6701 42.7565 25.5664 43.0055 25.5664 43.2659V47.2C25.5664 47.4604 25.6701 47.7117 25.8545 47.896C26.0389 48.0804 26.2901 48.1841 26.5505 48.1841H34.4164C34.6792 48.1841 34.9281 48.0804 35.1124 47.896ZM49.0672 19.6589L49.0673 19.6589L49.0673 19.6589C51.1622 17.6098 51.7268 14.4571 50.4731 11.8067C49.8739 10.546 48.9059 9.49739 47.6959 8.79907C47.2258 8.52712 46.6243 8.68618 46.3523 9.1563C46.0804 9.62641 46.2394 10.228 46.7096 10.4999C47.5762 11 48.2698 11.7514 48.6985 12.6525C49.0097 13.307 49.171 14.0237 49.1664 14.7497C49.171 16.0726 48.6363 17.3402 47.6868 18.2598C47.5738 18.3727 47.454 18.4787 47.3295 18.5755L47.3272 18.5778C47.1705 18.7023 47.0322 18.8014 46.9331 18.8659L46.652 19.0272C45.1612 19.8798 43.3317 19.8776 41.8408 19.0232C41.8402 19.0228 41.8398 19.0222 41.8398 19.0215C41.8398 19.0208 41.8394 19.0201 41.8388 19.0197L41.6162 18.8936C41.4595 18.7922 41.3351 18.7023 41.2106 18.6055C41.0931 18.5179 40.9802 18.4211 40.8741 18.3174C39.8923 17.3909 39.3346 16.1003 39.3346 14.7497C39.33 14.0284 39.4867 13.3162 39.7955 12.6663C40.2288 11.7582 40.9248 11.0023 41.7937 10.4976C42.2638 10.2257 42.4229 9.62414 42.1509 9.15398C41.8767 8.68612 41.2752 8.5271 40.8073 8.79906C39.5927 9.49968 38.6224 10.5529 38.0209 11.8182C37.5853 12.7332 37.3618 13.7357 37.3664 14.7498C37.3618 16.6281 38.1315 18.4235 39.4913 19.7187C39.6526 19.8754 39.8209 20.0206 39.9983 20.1543C40.1896 20.3041 40.3878 20.4447 40.5929 20.5738L40.8534 20.7236C42.9526 21.9334 45.538 21.9358 47.6374 20.7288C47.638 20.7284 47.6384 20.7277 47.6384 20.727C47.6384 20.7267 47.6385 20.7264 47.6386 20.7261C47.6388 20.7258 47.639 20.7255 47.6394 20.7253L47.9587 20.5415C48.15 20.417 48.3344 20.2857 48.5372 20.1267C48.7239 19.9838 48.9013 19.8271 49.0672 19.6589ZM22.6163 27.5342H20.6504V37.3683H22.6163V27.5342ZM33.4332 44.25H27.5332V46.2159H33.4332V44.25ZM9.83398 44.25H15.734V46.2159H9.83398V44.25Z" fill="#F78E1E"/>
<path fill-rule="evenodd" clip-rule="evenodd" d="M34.6028 3.61605C37.2832 1.29525 40.7059 0.0138548 44.2504 4.27704e-07C48.1614 0.00469815 51.9109 1.56034 54.6742 4.32588C57.4398 7.08944 58.9954 10.8389 59.0001 14.75C58.9955 18.6611 57.4398 22.4108 54.6742 25.1741C51.9106 27.9397 48.1611 29.4954 44.2501 29.5C43.7177 29.5 43.2659 29.9158 43.2659 30.4481V55.0662C43.2636 57.2372 41.5051 58.998 39.3341 59.0003H3.93412C1.7631 58.998 0.00230466 57.2372 0 55.0662V19.6662C0.002301 17.4952 1.7631 15.7367 3.93412 15.7344H28.5522C29.0845 15.7344 29.5003 15.2826 29.5003 14.7502C29.5003 14.0473 29.551 13.3444 29.6478 12.6484C30.1663 9.1404 31.9248 5.93688 34.6028 3.61605ZM44.2504 4.27704e-07C44.2505 2.85002e-07 44.2505 1.42434e-07 44.2505 0H44.2501C44.2502 1.42225e-07 44.2503 2.82516e-07 44.2504 4.27704e-07ZM44.2505 6.88406C43.7066 6.88406 43.2664 7.32428 43.2664 7.86588V11.8C43.2664 12.3439 43.7066 12.7841 44.2505 12.7841C44.7945 12.7841 45.2346 12.3439 45.2346 11.8V7.86588C45.2346 7.32425 44.7945 6.88406 44.2505 6.88406ZM21.6346 20.65H9.83465C9.29072 20.65 8.85053 21.0902 8.85053 21.6341C8.85053 22.1757 9.29074 22.6159 9.83465 22.6159H21.6346C22.1763 22.6159 22.6165 22.1757 22.6165 21.6341C22.6165 21.0902 22.1763 20.65 21.6346 20.65ZM4.91641 22.6159H5.90053C6.44446 22.6159 6.88465 22.1757 6.88465 21.6341C6.88465 21.0901 6.44444 20.6499 5.90053 20.6499H4.91641C4.37478 20.6499 3.93459 21.0902 3.93459 21.6341C3.93459 22.1757 4.37481 22.6159 4.91641 22.6159ZM17.4124 47.896C17.5968 47.7116 17.7005 47.4604 17.7005 47.2V43.2659C17.7005 43.0054 17.5968 42.7565 17.4124 42.5722C17.2281 42.3878 16.9792 42.2841 16.7164 42.2841H8.85054C8.59011 42.2841 8.33889 42.3878 8.15452 42.5722C7.97014 42.7565 7.86643 43.0055 7.86643 43.2659V47.2C7.86643 47.4604 7.97014 47.7117 8.15452 47.896C8.3389 48.0804 8.59011 48.1841 8.85054 48.1841H16.7164C16.9792 48.1841 17.2281 48.0804 17.4124 47.896ZM24.2966 39.046C24.4809 38.8616 24.5847 38.6104 24.5847 38.35V26.55C24.5847 26.2896 24.4809 26.0384 24.2966 25.854C24.1122 25.6696 23.861 25.5659 23.6005 25.5659H19.6664C19.406 25.5659 19.1571 25.6696 18.9727 25.854C18.7883 26.0384 18.6846 26.2896 18.6846 26.55V38.35C18.6846 38.6104 18.7883 38.8617 18.9727 39.046C19.1571 39.2304 19.406 39.3341 19.6664 39.3341H23.6005C23.861 39.3341 24.1122 39.2304 24.2966 39.046ZM35.1124 47.896C35.2968 47.7116 35.4005 47.4604 35.4005 47.2V43.2659C35.4005 43.0054 35.2968 42.7565 35.1124 42.5722C34.9281 42.3878 34.6792 42.2841 34.4164 42.2841H26.5505C26.2901 42.2841 26.0389 42.3878 25.8545 42.5722C25.6701 42.7565 25.5664 43.0055 25.5664 43.2659V47.2C25.5664 47.4604 25.6701 47.7117 25.8545 47.896C26.0389 48.0804 26.2901 48.1841 26.5505 48.1841H34.4164C34.6792 48.1841 34.9281 48.0804 35.1124 47.896ZM49.0672 19.6589L49.0673 19.6589L49.0673 19.6589C51.1622 17.6098 51.7268 14.4571 50.4731 11.8067C49.8739 10.546 48.9059 9.49739 47.6959 8.79907C47.2258 8.52712 46.6243 8.68618 46.3523 9.1563C46.0804 9.62641 46.2394 10.228 46.7096 10.4999C47.5762 11 48.2698 11.7514 48.6985 12.6525C49.0097 13.307 49.171 14.0237 49.1664 14.7497C49.171 16.0726 48.6363 17.3402 47.6868 18.2598C47.5738 18.3727 47.454 18.4787 47.3295 18.5755L47.3272 18.5778C47.1705 18.7023 47.0322 18.8014 46.9331 18.8659L46.652 19.0272C45.1612 19.8798 43.3317 19.8776 41.8408 19.0232C41.8402 19.0228 41.8398 19.0222 41.8398 19.0215C41.8398 19.0208 41.8394 19.0201 41.8388 19.0197L41.6162 18.8936C41.4595 18.7922 41.3351 18.7023 41.2106 18.6055C41.0931 18.5179 40.9802 18.4211 40.8741 18.3174C39.8923 17.3909 39.3346 16.1003 39.3346 14.7497C39.33 14.0284 39.4867 13.3162 39.7955 12.6663C40.2288 11.7582 40.9248 11.0023 41.7937 10.4976C42.2638 10.2257 42.4229 9.62414 42.1509 9.15398C41.8767 8.68612 41.2752 8.5271 40.8073 8.79906C39.5927 9.49968 38.6224 10.5529 38.0209 11.8182C37.5853 12.7332 37.3618 13.7357 37.3664 14.7498C37.3618 16.6281 38.1315 18.4235 39.4913 19.7187C39.6526 19.8754 39.8209 20.0206 39.9983 20.1543C40.1896 20.3041 40.3878 20.4447 40.5929 20.5738L40.8534 20.7236C42.9526 21.9334 45.538 21.9358 47.6374 20.7288C47.638 20.7284 47.6384 20.7277 47.6384 20.727C47.6384 20.7267 47.6385 20.7264 47.6386 20.7261C47.6388 20.7258 47.639 20.7255 47.6394 20.7253L47.9587 20.5415C48.15 20.417 48.3344 20.2857 48.5372 20.1267C48.7239 19.9838 48.9013 19.8271 49.0672 19.6589ZM22.6163 27.5342H20.6504V37.3683H22.6163V27.5342ZM33.4332 44.25H27.5332V46.2159H33.4332V44.25ZM9.83398 44.25H15.734V46.2159H9.83398V44.25Z" fill="url(#paint0_linear)"/>
</g>
<defs>
<linearGradient id="paint0_linear" x1="53.6434" y1="29.0766" x2="48.3546" y2="29.0766" gradientUnits="userSpaceOnUse">
<stop offset="0.046875" stop-color="#E38119"/>
<stop offset="1" stop-color="#F78E1E"/>
</linearGradient>
<clipPath id="clip0">
<rect width="59" height="59" fill="white"/>
</clipPath>
</defs>
</svg>
