<?xml version="1.0" encoding="utf-8"?>
<!-- Generator: Adobe Illustrator 24.0.3, SVG Export Plug-In . SVG Version: 6.00 Build 0)  -->
<svg version="1.1" id="Layer_1" xmlns="http://www.w3.org/2000/svg" xmlns:xlink="http://www.w3.org/1999/xlink" x="0px" y="0px"
	 viewBox="0 0 661 40" style="enable-background:new 0 0 661 40;" xml:space="preserve">
<style type="text/css">
	.st0{fill:#F78E1E;}
	.st1{fill:#939598;}
</style>
<g>
	<g>
		<g>
			<path class="st0" d="M11.52,10.97c-0.72,0-1.99,0.35-3.83,1.03c0.33,0.4,0.5,0.84,0.5,1.33c0,0.51-0.12,1.34-0.35,2.5L3.87,35.86
				c-0.32,1.42-0.48,2.29-0.48,2.59c0,0.58,0.36,0.87,1.07,0.87c1.15,0,2.42-0.35,3.83-1.05c-0.14-0.43-0.21-0.78-0.21-1.07
				c0-0.52,0.13-1.43,0.39-2.71l3.66-18.39c0.45-2.18,0.68-3.39,0.68-3.62C12.83,11.46,12.39,10.97,11.52,10.97z"/>
			<path class="st0" d="M27.21,32.69c-2.38,0-5.23-3.76-8.52-11.27c3.65-1.6,6.22-3.14,7.68-4.63c1.47-1.48,2.2-3.28,2.2-5.39
				c0-4.36-3.42-6.54-10.26-6.54c-4.44,0-8.6,0.99-12.49,2.98C1.94,9.83,0,11.97,0,14.26c0,0.9,0.28,1.67,0.85,2.32
				c1.49-2.64,3.8-4.81,6.93-6.51c3.13-1.69,6.39-2.53,9.78-2.53c2,0,3.65,0.42,4.94,1.25c1.29,0.83,1.93,1.9,1.93,3.2
				c0,3.52-2.26,6.03-6.79,7.55c-0.6-0.17-1.12-0.25-1.53-0.25c-2.08,0-3.38,1.3-3.89,3.91c0.25,0.11,0.51,0.16,0.81,0.16
				c0.59,0,1.25-0.1,1.99-0.31c3.65,8.8,7.1,13.2,10.32,13.2c1.27,0,2.59-0.62,3.95-1.87c1.37-1.25,2.05-2.45,2.05-3.61
				c0-0.14-0.04-0.38-0.1-0.72C29.81,31.81,28.46,32.69,27.21,32.69z"/>
			<path class="st0" d="M40.72,30.71c-0.46,0-1.18,0.1-2.17,0.29l-1.49,0.29c0.28,0.39,0.41,0.86,0.41,1.43
				c0,0.26-0.03,0.51-0.08,0.74l-0.11,0.54c-0.06,0.26-0.08,0.53-0.08,0.81c0,1.02,0.49,1.53,1.47,1.53c0.26,0,1.07-0.12,2.42-0.37
				l0.95-0.16l0.27-1.41c0.14-0.7,0.21-1.3,0.21-1.8C42.52,31.33,41.92,30.71,40.72,30.71z"/>
			<path class="st0" d="M83,4.85c-0.81,0-1.72,0.12-2.71,0.37c1.2,2.08,1.8,4.33,1.8,6.74c0,5.6-1.04,10.49-3.12,14.68
				c-1.88,3.75-3.71,5.63-5.5,5.63c-1.57,0-2.36-2.59-2.36-7.76l0.02-1.41l0.06-2.36c0-2.14,0.27-5.45,0.83-9.93
				c0.07-0.47,0.1-0.86,0.1-1.18c0-1.09-0.57-1.64-1.72-1.64c-0.21,0-0.6,0.06-1.18,0.19c-0.08,0.01-0.22,0.03-0.4,0.06
				c-2.91,5.39-6.67,12.84-11.27,22.33c-0.46-8.5-1.19-15.19-2.19-20.07c-0.65-3.18-1.18-5.19-1.6-6.04c-0.42-0.85-1.08-1.28-2-1.28
				c-0.64,0-1.66,0.17-3.06,0.51c1.38,2.61,2.51,6.51,3.38,11.7C52.96,20.6,53.4,26,53.4,31.59c0,2.28-0.19,4.12-0.56,5.52
				c2.15-0.28,3.51-0.63,4.08-1.06c0.57-0.43,1.35-1.65,2.33-3.67l0.68-1.51c1.75-3.75,4.29-8.52,7.61-14.29
				c-0.18,3.57-0.27,6.22-0.27,7.95c0,4.3,0.32,7.33,0.96,9.08c0.64,1.75,1.75,2.63,3.32,2.63c1.41,0,3.05-0.88,4.93-2.62
				c1.88-1.75,3.58-3.98,5.08-6.68c3.27-5.89,4.9-11.66,4.9-17.33c0-1.75-0.26-2.98-0.78-3.69C85.17,5.21,84.28,4.85,83,4.85z"/>
			<path class="st0" d="M181.17,13.66c-1.07,0-2.22,0.48-3.46,1.45c1.3,0.52,1.96,2.09,1.96,4.7c0,3.67-0.62,6.91-1.85,9.7
				c-1.23,2.8-2.66,4.2-4.28,4.2c-1.76,0-2.64-1.92-2.64-5.77c0-1.37,0.05-2.59,0.15-3.68l0.13-1.41c0.05-0.51,0.14-1.1,0.24-1.76
				c0.49-2.73,0.73-4.24,0.73-4.53c0-0.91-0.6-1.37-1.8-1.37c-0.64,0-1.55,0.22-2.75,0.66c0.01,0.33,0.02,0.56,0.02,0.68
				c0,1.68-0.7,4.01-2.11,6.98c-1.41,2.97-3.12,5.77-5.15,8.39c-0.38-6.25-1.09-11.11-2.12-14.58c-0.55-1.85-1.17-3.19-1.85-4.06
				c0.4-0.51,0.74-1.3,1.01-2.39c-1.01,0.5-2.47,0.75-4.39,0.75h-10.92c1.16-3.27,2.28-5.59,3.35-6.97
				c-0.45-0.03-0.78-0.04-0.99-0.04c-1.76,0-3.09,0.4-3.97,1.19c-0.89,0.8-1.64,2.26-2.28,4.39l-0.41,1.43h-3.13
				c-1.26,0-2.14,0.19-2.67,0.55c-0.53,0.37-1.19,1.28-1.99,2.74c0.87-0.42,2.03-0.62,3.5-0.62h3.49l-0.95,3.48
				c-0.2,0.69-0.37,1.35-0.54,1.99c-1.34,1.46-2.5,2.6-3.47,3.42c-1.34,1.12-3.33,2.47-5.96,4.05l-1.84-3.35l-2.36-4.35
				c2.39-1.42,3.58-2.9,3.58-4.45c0-1.09-0.94-1.99-2.81-2.71c-3.05,1.6-4.57,3.71-4.57,6.33c0,0.23,0.02,0.46,0.05,0.71
				c-2.69,4.09-5.66,7.44-8.94,10.04c-3.57,2.82-6.84,4.23-9.81,4.23c-3.42,0-5.13-2.02-5.13-6.05c3.86,0,7.28-0.95,10.25-2.85
				c2.97-1.9,4.46-4.09,4.46-6.56c0-1.5-0.53-2.7-1.6-3.6c-1.07-0.89-2.49-1.34-4.27-1.34c-3.68,0-6.83,1.42-9.45,4.26
				c-2.61,2.84-3.92,6.26-3.92,10.26c0,2.77,0.72,4.96,2.16,6.56c1.45,1.6,3.4,2.4,5.89,2.4c3.87,0,7.98-1.66,12.3-4.96
				c3.47-2.66,6.42-5.89,8.85-9.67c0.5,1.23,1.23,2.61,2.19,4.16l1.66,2.67c-3.16,1.51-5.41,2.83-6.75,3.93
				c-1.34,1.1-2.02,2.19-2.02,3.27c0,1.01,0.49,1.87,1.47,2.59c0.98,0.71,2.17,1.08,3.56,1.08c2.37,0,4.44-0.78,6.2-2.35
				c1.77-1.57,2.65-3.4,2.65-5.52c0-0.95-0.24-1.95-0.7-3c2.81-1.57,5.29-3.38,7.47-5.4c-0.41,2.09-0.63,3.85-0.63,5.28
				c0,2.33,0.52,4.24,1.56,5.71c1.04,1.48,2.39,2.21,4.04,2.21c1.88,0,3.95-0.82,6.24-2.45c2.28-1.64,3.43-3.13,3.43-4.48
				c0-0.51-0.19-1.1-0.56-1.78c-0.6,1.27-1.59,2.41-2.99,3.41c-1.4,1.01-2.69,1.51-3.88,1.51c-2.3,0-3.46-1.6-3.46-4.8
				c0-2.89,0.83-7.18,2.5-12.87c0.07-0.22,0.17-0.56,0.31-1.01h11.09c0.97,1.57,1.81,3.79,2.53,6.64c0.95,3.78,1.43,7.62,1.43,11.52
				c0,1.61-0.17,3.03-0.52,4.24c2.77,0,5.03-1.18,6.78-3.54c1.78-2.41,3.45-5.39,5.01-8.92l-0.15,4.82c0,5.3,1.57,7.95,4.7,7.95
				c2.77,0,5.32-2.15,7.64-6.46c2.65-4.94,3.97-9.29,3.97-13.05C183.66,14.94,182.83,13.66,181.17,13.66z M97.34,18.34
				c1.59-2.01,3.32-3.01,5.19-3.01c1.57,0,2.36,0.88,2.36,2.64c0,1.97-1.03,3.7-3.09,5.2c-2.06,1.5-4.54,2.33-7.42,2.48
				C94.77,22.79,95.76,20.35,97.34,18.34z M122.96,36.36c-0.76,0.82-1.74,1.23-2.96,1.23c-1.64,0-2.46-0.57-2.46-1.7
				c0-1.2,2.03-2.88,6.08-5.07c0.32,0.8,0.48,1.59,0.48,2.36C124.09,34.48,123.72,35.54,122.96,36.36z"/>
			<path class="st0" d="M281.39,18.31c-2.06,3.4-4.62,6.64-7.71,9.75c-3.08,3.1-5.29,4.66-6.61,4.66c-1.35,0-2.03-1.19-2.03-3.56
				c0-1.78,0.26-3.94,0.77-6.48L270.33,0c-2.37,0.94-4.83,1.41-7.39,1.41c-2.05,0-3.58-0.34-4.57-1.01c0.34,1.58,0.8,2.66,1.36,3.23
				c0.57,0.57,1.45,0.86,2.67,0.86c0.8,0,1.8-0.12,3.02-0.37l-2.21,11.13c-2.43-1.31-4.67-1.96-6.72-1.96
				c-3.44,0-6.45,1.64-9.04,4.91c-0.12,0.15-0.23,0.31-0.34,0.47c-1.31,0.57-2.54,0.86-3.71,0.86c-2.48,0-4.87-0.78-7.16-2.34
				c-2.23-3.17-5.03-4.9-8.4-5.17c-0.45,0.61-0.68,1.24-0.68,1.91c0,0.43,0.17,0.95,0.52,1.57c-0.52-0.12-1.02-0.19-1.49-0.19
				c-3.06,0-5.72,1.18-7.98,3.54c0,0-0.01,0.01-0.01,0.01c-1.12,0.43-2.19,0.67-3.21,0.67c-2.48,0-4.87-0.78-7.16-2.34
				c-2.23-3.17-5.03-4.9-8.4-5.17c-0.46,0.61-0.68,1.24-0.68,1.91c0,0.43,0.17,0.95,0.52,1.57c-0.52-0.12-1.02-0.19-1.49-0.19
				c-3.06,0-5.72,1.18-7.98,3.54c-2.26,2.36-3.38,5.14-3.38,8.36c0,2.82,0.87,5.13,2.62,6.9c1.74,1.78,4,2.66,6.77,2.66
				c3.63,0,6.79-1.48,9.49-4.45c2.71-2.97,4.06-6.44,4.06-10.43c0-0.26-0.02-0.56-0.06-0.89c1.94,0.64,3.68,0.95,5.21,0.95
				c0.53,0,1.05-0.04,1.57-0.12c-0.83,1.64-1.26,3.43-1.26,5.38c0,2.82,0.87,5.13,2.62,6.9c1.74,1.78,4.01,2.66,6.78,2.66
				c3.63,0,6.79-1.48,9.5-4.45c2.7-2.97,4.05-6.44,4.05-10.43c0-0.26-0.02-0.56-0.06-0.89c1.94,0.64,3.68,0.95,5.21,0.95
				c0.8,0,1.59-0.1,2.38-0.28c-1.15,2.42-1.74,5.08-1.74,7.98c0,2.16,0.44,3.89,1.31,5.18c0.87,1.29,2.04,1.93,3.52,1.93
				c1.85,0,3.95-1.14,6.3-3.4c2.35-2.27,4.6-5.34,6.76-9.22c-0.34,2.1-0.52,4.07-0.52,5.92c0,4.47,1.39,6.71,4.18,6.71
				c2.19,0,5.12-1.77,8.8-5.32c3.67-3.55,6.74-7.57,9.2-12.06L281.39,18.31z M202.61,30.94c-1.68,2.35-3.69,3.53-6.02,3.53
				c-1.72,0-3.13-0.63-4.23-1.9c-1.1-1.26-1.64-2.87-1.65-4.83c0-2.7,0.91-5.11,2.72-7.22c1.81-2.11,3.89-3.16,6.23-3.17
				c0.47,0.01,1.06,0.08,1.76,0.23c0.97,0.76,2.02,1.31,3.17,1.65c0.36,1.06,0.53,2.16,0.54,3.29
				C205.13,25.79,204.29,28.59,202.61,30.94z M231.02,30.94c-1.68,2.35-3.69,3.53-6.02,3.53c-1.72,0-3.13-0.63-4.23-1.9
				c-1.1-1.26-1.65-2.87-1.65-4.83c0-2.7,0.91-5.11,2.72-7.22c1.81-2.11,3.89-3.16,6.24-3.17c0.47,0.01,1.05,0.08,1.76,0.23
				c0.97,0.76,2.02,1.31,3.17,1.65c0.35,1.06,0.53,2.16,0.54,3.29C233.54,25.79,232.7,28.59,231.02,30.94z M261.76,19.82
				c-5.57,8.66-9.34,12.99-11.3,12.99c-1.82,0-2.73-1.4-2.73-4.18c0-3.46,0.76-6.46,2.26-9c1.51-2.54,3.3-3.81,5.37-3.81
				c1.9,0,4.29,0.94,7.16,2.83C262.11,19.29,261.86,19.67,261.76,19.82z"/>
		</g>
		<path class="st1" d="M321.68,26.07c-3.82,4.06-8.2,6.08-13.14,6.08c-3.17,0-5.71-0.76-7.61-2.28c-1.89-1.52-2.84-3.56-2.84-6.11
			c0-5.04,3.29-8.64,9.87-10.8c-2.21-1.09-3.31-2.87-3.31-5.34c0-2.18,0.99-4,2.96-5.45c1.97-1.45,4.45-2.17,7.43-2.17
			c1.82,0,3.35,0.29,4.57,0.88c1.23,0.59,1.84,1.31,1.84,2.16c0,0.7-0.42,1.44-1.26,2.21c-1.16-2.14-3.06-3.21-5.71-3.21
			c-1.75,0-3.19,0.47-4.32,1.41c-1.13,0.94-1.7,2.13-1.7,3.58c0,1.67,0.92,3.2,2.75,4.6c1.21-0.26,2.26-0.4,3.14-0.4
			c0.82,0,1.66,0.13,2.53,0.4c-0.79,2.22-2.17,3.33-4.16,3.33c-0.83,0-1.72-0.21-2.67-0.64c-2.36,0.86-4.25,2.12-5.68,3.81
			c-1.43,1.69-2.14,3.5-2.14,5.43c0,1.75,0.73,3.18,2.18,4.28c1.45,1.1,3.33,1.66,5.64,1.66c2.77,0,5.57-1.04,8.38-3.1
			c2.81-2.06,4.22-4.12,4.22-6.16c0-1.09-0.58-1.88-1.74-2.38l-0.56-0.23c-0.65-0.29-0.97-0.7-0.97-1.24c0-0.64,0.27-1.5,0.83-2.59
			c1.74,0.76,4.32,1.15,7.74,1.15c1.81,0,3.62-0.21,5.44-0.63c-0.51,1.5-1.15,2.53-1.92,3.08c-0.77,0.56-1.97,0.83-3.6,0.83
			c-0.3,0-0.8-0.03-1.49-0.08c-1.67,4.77-2.5,8.6-2.5,11.51c0,2.22,0.39,3.93,1.18,5.12c-0.94,0.89-1.98,1.33-3.1,1.33
			c-0.9,0-1.35-0.71-1.35-2.13C320.6,32.35,320.96,29.72,321.68,26.07z"/>
		<g>
			<path class="st0" d="M368.52,0.78C367.47,0.26,366.1,0,364.41,0c-3.2,0-5.83,0.86-7.91,2.57c-2.07,1.71-3.1,3.89-3.1,6.54
				c0,2.27,1.46,4.76,4.36,7.47l2.28,2.11c3.13,2.93,4.7,5.22,4.7,6.89c0,1.56-0.71,2.91-2.13,4.07c-1.42,1.16-3.1,1.74-5.03,1.74
				c-2.18,0-3.88-0.64-5.12-1.92c-1.23-1.29-1.85-3.05-1.85-5.3c-1.86,1.39-2.79,2.66-2.79,3.8c0,1.69,0.77,3.08,2.31,4.18
				c1.54,1.1,3.49,1.66,5.84,1.66c3.52,0,6.43-0.96,8.75-2.89c2.32-1.92,3.48-4.35,3.48-7.27c0-2.51-1.7-5.34-5.09-8.5l-1.86-1.72
				c-1.97-1.8-3.15-2.98-3.53-3.52c-0.38-0.54-0.57-1.32-0.57-2.34c0-1.53,0.58-2.82,1.73-3.86c1.15-1.04,2.57-1.56,4.25-1.56
				c2.7,0,4.65,1.16,5.86,3.48c0.74-1.08,1.12-2.02,1.12-2.84C370.09,1.97,369.57,1.29,368.52,0.78z"/>
			<path class="st0" d="M440.85,13.47c-3.41,5.71-5.87,9.51-7.38,11.4c-1.51,1.89-2.86,2.83-4.05,2.83c-0.79,0-1.33-0.55-1.62-1.67
				c-0.29-1.11-0.45-3.11-0.45-6.01l-0.04-2.5c0-6.07-1.53-9.1-4.57-9.1c-3.9,0-8.3,5.18-13.2,15.54l0.54-5.77
				c0.04-0.4,0.08-0.82,0.12-1.26c0.21-2.01,0.31-3.43,0.31-4.26c0-1.57-0.54-2.36-1.61-2.36c-0.51,0-1.19,0.15-2.05,0.46
				c-0.67,0.23-1.16,0.4-1.45,0.5c0.48,0.61,0.78,1.39,0.91,2.32c-1.48,0.71-2.88,1.09-4.18,1.09c-2.48,0-4.87-0.78-7.16-2.34
				c-2.23-3.17-5.04-4.9-8.4-5.17c-0.45,0.61-0.68,1.24-0.68,1.9c0,0.43,0.17,0.95,0.52,1.57c-0.52-0.12-1.02-0.19-1.49-0.19
				c-3.06,0-5.72,1.18-7.98,3.54c-2.25,2.36-3.38,5.14-3.38,8.36c0,2.83,0.87,5.13,2.62,6.9c1.74,1.77,4.01,2.66,6.78,2.66
				c3.63,0,6.79-1.48,9.49-4.45c2.7-2.96,4.05-6.44,4.05-10.43c0-0.27-0.02-0.56-0.06-0.89c1.94,0.63,3.68,0.95,5.21,0.95
				c1.59,0,3.16-0.37,4.7-1.11c-0.05,0.88-0.13,1.92-0.27,3.15l-0.45,4.49c-0.36,3.53-0.54,5.52-0.54,5.96
				c0,1.54,0.7,2.32,2.09,2.32c0.55,0,1.23-0.17,2.03-0.5c-0.18-0.3-0.27-0.62-0.27-0.95c0-0.83,0.53-2.16,1.59-4.01
				c0.29-0.51,0.93-1.66,1.92-3.44c4.04-7.27,6.97-10.9,8.79-10.9c0.72,0,1.22,0.46,1.51,1.38c0.29,0.92,0.43,2.51,0.43,4.77
				l0.02,1.78c0,4.18,0.36,7.12,1.07,8.81c0.71,1.7,1.94,2.55,3.69,2.55c1.9,0,4.05-1.39,6.45-4.16c2.4-2.77,5.12-7.02,8.15-12.75
				L440.85,13.47z M389.77,26.08c-1.68,2.35-3.69,3.53-6.02,3.53c-1.72,0-3.13-0.63-4.23-1.89c-1.1-1.26-1.65-2.87-1.65-4.83
				c0-2.7,0.91-5.11,2.72-7.22c1.81-2.11,3.89-3.16,6.24-3.17c0.47,0,1.05,0.08,1.76,0.23c0.97,0.76,2.02,1.31,3.17,1.65
				c0.35,1.06,0.54,2.16,0.54,3.29C392.29,20.93,391.45,23.73,389.77,26.08z"/>
		</g>
		<g>
			<path class="st1" d="M469.09,5.63c-4.84,0-7.73,0.24-8.67,0.72c-1.2,0.63-2.15,2.05-2.83,4.26c2.18-1.62,4.54-2.44,7.1-2.44h0.6
				l-2.03,10.2h-0.68c-1.06,0-1.84,0.21-2.33,0.62c-0.49,0.41-1.11,1.36-1.87,2.86c1.31-0.61,2.66-0.91,4.06-0.91h0.31l-1.39,6.97
				c-0.44,2.28-0.66,3.82-0.66,4.62c0,2.99,2.26,4.49,6.77,4.49c1.16,0,2.82-0.16,4.97-0.47c2.15-0.31,3.66-0.61,4.53-0.9
				c1.43-0.48,2.46-1.76,3.08-3.83c-2.69,1.26-5.8,1.89-9.33,1.89c-3.56,0-5.34-0.92-5.34-2.75c0-0.93,0.22-2.49,0.66-4.7l1.06-5.32
				v0h4.28c2.7,0,4.42-0.18,5.15-0.54c0.73-0.36,1.56-1.41,2.5-3.17c-1.78,0.76-4.16,1.14-7.15,1.14h-4.28l2.06-10.2h6.67
				c2.82,0,4.66-0.19,5.51-0.56c0.85-0.37,1.82-1.42,2.9-3.14c-2.43,0.77-5.59,1.16-9.48,1.16H469.09z"/>
			<path class="st1" d="M564.41,31.47c-1.4,1-2.69,1.51-3.88,1.51c-2.3,0-3.46-1.6-3.46-4.8c0-2.9,0.83-7.19,2.51-12.87
				c0.07-0.22,0.17-0.56,0.31-1.01h11.63c1.56,0,2.63-0.22,3.2-0.65c0.57-0.43,1.03-1.36,1.38-2.77c-1.01,0.5-2.47,0.75-4.39,0.75
				h-10.92c1.16-3.27,2.28-5.59,3.35-6.97c-0.46-0.03-0.79-0.04-0.99-0.04c-1.76,0-3.09,0.4-3.97,1.19
				c-0.89,0.79-1.64,2.26-2.28,4.39l-0.41,1.43h-3.12c-1.26,0-2.15,0.18-2.67,0.55c-0.52,0.37-1.19,1.28-1.98,2.73
				c0.87-0.41,2.03-0.62,3.49-0.62h3.5l-0.95,3.48c-0.33,1.15-0.62,2.23-0.86,3.26c-6.05,8.7-11.38,13.06-16,13.06
				c-1.85,0-3.35-0.7-4.5-2.1c-1.15-1.4-1.73-3.21-1.73-5.43c0-2.73,0.87-5.25,2.6-7.54c1.73-2.3,3.62-3.45,5.68-3.45
				c2.37,0,3.56,1.12,3.56,3.35c0,0.3-0.07,0.62-0.21,0.95c2.58-0.76,3.87-1.9,3.87-3.41c0-0.92-0.5-1.68-1.5-2.29
				c-1-0.6-2.28-0.9-3.84-0.9c-3.85,0-7.2,1.43-10.05,4.27c-1.63,1.63-2.78,3.42-3.48,5.37c-2,2.54-4.14,4.72-6.43,6.53
				c-3.57,2.82-6.84,4.23-9.8,4.23c-3.42,0-5.14-2.02-5.14-6.05c3.86,0,7.28-0.95,10.25-2.85c2.97-1.9,4.46-4.09,4.46-6.56
				c0-1.5-0.53-2.7-1.6-3.6c-1.07-0.89-2.49-1.35-4.27-1.35c-3.68,0-6.83,1.42-9.45,4.26c-1.89,2.05-3.08,4.41-3.61,7.07
				c-1.75,2.6-3.13,4.47-4.13,5.58c-1.68,1.87-3.34,2.81-5,2.81c-1.71,0-2.57-1.17-2.57-3.5c0-0.84,0.21-2.38,0.64-4.61L496.44,0
				c-1.56,1.03-3.38,1.55-5.46,1.55c-2.08,0-3.95-0.47-5.61-1.41v0.48c0,2.65,1.59,3.97,4.76,3.97c0.4,0,0.87-0.04,1.41-0.12
				l-4.12,20.73c-0.41,2.07-0.62,3.67-0.62,4.8c0,2.01,0.49,3.65,1.49,4.9c0.99,1.25,2.3,1.87,3.91,1.87c2.22,0,4.77-1.54,7.66-4.62
				c0.86-0.92,1.72-1.96,2.58-3.09c0.19,2.19,0.89,3.96,2.1,5.32c1.44,1.6,3.41,2.4,5.89,2.4c3.87,0,7.98-1.66,12.3-4.97
				c1.71-1.31,3.29-2.76,4.75-4.34c0,0.04-0.01,0.08-0.01,0.12c0,2.91,0.83,5.28,2.48,7.1c1.65,1.82,3.81,2.73,6.48,2.73
				c3.2,0,6.67-1.61,10.4-4.83c2.09-1.79,4.11-3.97,6.07-6.51c-0.13,1.03-0.21,1.97-0.21,2.78c0,2.33,0.52,4.23,1.56,5.71
				c1.04,1.48,2.39,2.21,4.04,2.21c1.88,0,3.95-0.82,6.24-2.45c2.28-1.64,3.42-3.13,3.42-4.48c0-0.51-0.19-1.1-0.56-1.78
				C566.81,29.32,565.81,30.46,564.41,31.47z M515.22,15.33c1.57,0,2.36,0.88,2.36,2.64c0,1.97-1.03,3.7-3.09,5.2
				c-2.07,1.5-4.54,2.33-7.42,2.48c0.39-2.86,1.37-5.29,2.96-7.3C511.62,16.33,513.35,15.33,515.22,15.33z"/>
			<path class="st1" d="M592.85,13.93c-0.55-0.43-1.21-0.65-1.97-0.65c-2.15,0-4.54,1.4-7.19,4.21c-2.64,2.81-5.26,6.74-7.86,11.8
				l1.17-6.02c0.68-3.23,1.03-5.22,1.03-5.98c0-1.23-0.48-1.84-1.45-1.84c-0.91,0-2.09,0.25-3.54,0.75
				c0.46,0.54,0.68,1.21,0.68,2.01c0,1.48-0.32,3.75-0.95,6.81l-1.03,5.15c-0.5,2.52-0.75,4.1-0.75,4.74c0,1.24,0.71,1.86,2.12,1.86
				c0.57,0,1.33-0.22,2.27-0.66l-0.02-0.35c0-1.05,0.62-2.8,1.86-5.27c1.24-2.46,2.7-4.85,4.38-7.17c2.71-3.72,4.94-5.58,6.69-5.58
				c0.96,0,1.71,0.55,2.23,1.63c2.1-1.6,3.14-2.88,3.14-3.85C593.67,14.9,593.4,14.37,592.85,13.93z"/>
			<path class="st1" d="M599.74,12.52c0.83,0,2.41-0.98,4.76-2.94c1.55-1.28,2.62-2.88,3.23-4.78c-0.98,0.93-2.33,1.83-4.06,2.73
				c-1.73,0.89-3.06,1.36-3.98,1.4l-0.29-0.02c-0.32,0.77-0.47,1.64-0.48,2.61C598.91,12.18,599.19,12.52,599.74,12.52z"/>
			<path class="st1" d="M660.18,18.99l-1.66-1.01c-2.04,2.35-3.73,4.08-5.07,5.2c-1.34,1.12-3.32,2.47-5.96,4.04l-1.84-3.35
				l-2.36-4.35c2.39-1.42,3.58-2.9,3.58-4.45c0-1.09-0.93-1.99-2.81-2.71c-3.05,1.6-4.57,3.71-4.57,6.33c0,0.22,0.02,0.45,0.05,0.69
				c-6.51,9.79-12.22,14.7-17.12,14.7c-1.85,0-3.35-0.7-4.5-2.1c-1.15-1.4-1.73-3.21-1.73-5.43c0-2.73,0.87-5.25,2.6-7.54
				c1.73-2.3,3.62-3.45,5.68-3.45c2.37,0,3.56,1.12,3.56,3.35c0,0.3-0.07,0.62-0.21,0.95c2.58-0.76,3.87-1.9,3.87-3.41
				c0-0.92-0.5-1.68-1.5-2.29c-1-0.6-2.28-0.9-3.84-0.9c-3.85,0-7.2,1.43-10.06,4.27c-1.81,1.81-3.04,3.81-3.7,6.02
				c-1.58,2.17-3.2,4.1-4.84,5.76c-2.87,2.9-5.16,4.35-6.89,4.35c-1.45,0-2.17-0.85-2.17-2.56c0-0.58,0.2-1.84,0.6-3.78l0.8-4.03
				c0.4-1.98,0.6-3.51,0.6-4.57c0-1.43-0.51-2.15-1.53-2.15c-0.46,0-1.58,0.21-3.37,0.62c0.47,0.5,0.71,1.14,0.71,1.93
				c0,1.33-0.34,3.63-1.01,6.91l-0.46,2.28c-0.27,1.35-0.41,2.34-0.41,2.96c0,1.64,0.47,2.97,1.42,3.97
				c0.95,1.01,2.19,1.51,3.73,1.51c2.54,0,5.4-1.54,8.59-4.63c1.23-1.19,2.46-2.56,3.68-4.11c0.08,2.71,0.9,4.93,2.47,6.65
				c1.65,1.82,3.81,2.73,6.48,2.73c3.2,0,6.67-1.61,10.4-4.83c3.11-2.67,6.08-6.19,8.91-10.51c0.5,1.24,1.24,2.65,2.23,4.24
				l1.65,2.67c-3.16,1.52-5.41,2.83-6.76,3.93c-1.34,1.1-2.02,2.19-2.02,3.27c0,1.01,0.49,1.87,1.47,2.58
				c0.98,0.72,2.17,1.08,3.56,1.08c2.37,0,4.44-0.79,6.21-2.35c1.77-1.56,2.65-3.4,2.65-5.51c0-0.95-0.23-1.95-0.7-3
				C653.34,26.29,657.21,22.97,660.18,18.99z M644.39,36.36c-0.76,0.82-1.74,1.23-2.96,1.23c-1.64,0-2.46-0.56-2.46-1.69
				c0-1.2,2.03-2.89,6.08-5.07c0.32,0.8,0.47,1.59,0.47,2.36C645.53,34.48,645.15,35.54,644.39,36.36z"/>
		</g>
	</g>
</g>
</svg>
